<mxfile host="65bd71144e">
    <diagram id="PifyqHSgpFldnnLIMnKe" name="Page-1">
        <mxGraphModel dx="1141" dy="611" grid="1" gridSize="10" guides="1" tooltips="1" connect="1" arrows="1" fold="1" page="1" pageScale="1" pageWidth="850" pageHeight="1100" math="0" shadow="0">
            <root>
                <mxCell id="0"/>
                <mxCell id="1" parent="0"/>
                <mxCell id="60" value="" style="rounded=0;whiteSpace=wrap;html=1;strokeWidth=0;fillColor=#141417;" vertex="1" parent="1">
                    <mxGeometry x="145" y="560" width="560" height="90" as="geometry"/>
                </mxCell>
                <mxCell id="9" value="&lt;h1&gt;Inicio&lt;/h1&gt;" style="rounded=0;whiteSpace=wrap;html=1;fillColor=#60a917;fontColor=#ffffff;strokeColor=#FFFFFF;" vertex="1" parent="1">
                    <mxGeometry x="145" y="80" width="560" height="50" as="geometry"/>
                </mxCell>
                <mxCell id="11" value="int vehiculos_D = 50" style="rounded=0;whiteSpace=wrap;html=1;fillColor=#0B0F0A;" vertex="1" parent="1">
                    <mxGeometry x="145" y="130" width="560" height="50" as="geometry"/>
                </mxCell>
                <mxCell id="12" value="int vehiculos_G = 45" style="rounded=0;whiteSpace=wrap;html=1;fillColor=#0B0F0A;" vertex="1" parent="1">
                    <mxGeometry x="145" y="180" width="560" height="50" as="geometry"/>
                </mxCell>
                <mxCell id="13" value="int seleccion = 0" style="rounded=0;whiteSpace=wrap;html=1;fillColor=#0B0F0A;" vertex="1" parent="1">
                    <mxGeometry x="145" y="230" width="560" height="50" as="geometry"/>
                </mxCell>
                <mxCell id="14" value="int cantidad = 0" style="rounded=0;whiteSpace=wrap;html=1;fillColor=#0B0F0A;" vertex="1" parent="1">
                    <mxGeometry x="145" y="280" width="560" height="50" as="geometry"/>
                </mxCell>
                <mxCell id="16" value="&lt;h4 style=&quot;line-height: 16.8px;&quot;&gt;&lt;font color=&quot;#4d4d4d&quot;&gt;Menu seleccion del Vehiculo&lt;br&gt;&lt;/font&gt;&lt;font color=&quot;#4d4d4d&quot;&gt;1-- Vehiculos de Diesel&lt;br&gt;&lt;/font&gt;&lt;font color=&quot;#4d4d4d&quot;&gt;2-- Vehiculos de Gasolina&lt;br&gt;&lt;/font&gt;&lt;font color=&quot;#4d4d4d&quot;&gt;Inserte el numero del vehiculo:&amp;nbsp;&lt;/font&gt;&lt;/h4&gt;" style="rounded=0;whiteSpace=wrap;html=1;verticalAlign=top;align=left;spacingLeft=51;fillColor=#C3FA2D;strokeColor=#FFFFFF;fontColor=#333333;spacingTop=11;" vertex="1" parent="1">
                    <mxGeometry x="145" y="330" width="560" height="140" as="geometry"/>
                </mxCell>
                <mxCell id="20" value="&lt;h4&gt;&lt;font&gt;cin &amp;gt;&amp;gt; selecion&lt;/font&gt;&lt;/h4&gt;" style="rounded=0;whiteSpace=wrap;html=1;fillColor=#7BBA32;strokeColor=#F0F0F0;fillStyle=solid;fontColor=#FAFAFA;" vertex="1" parent="1">
                    <mxGeometry x="145" y="470" width="560" height="50" as="geometry"/>
                </mxCell>
                <mxCell id="25" style="edgeStyle=none;html=1;exitX=0;exitY=1;exitDx=0;exitDy=0;endArrow=none;endFill=0;entryX=1;entryY=0;entryDx=0;entryDy=0;" edge="1" parent="1" source="22" target="28">
                    <mxGeometry relative="1" as="geometry">
                        <mxPoint x="520" y="600" as="targetPoint"/>
                    </mxGeometry>
                </mxCell>
                <mxCell id="26" style="edgeStyle=none;html=1;exitX=1;exitY=1;exitDx=0;exitDy=0;endArrow=none;endFill=0;entryX=1;entryY=0;entryDx=0;entryDy=0;" edge="1" parent="1" source="22" target="28">
                    <mxGeometry relative="1" as="geometry">
                        <mxPoint x="520" y="600" as="targetPoint"/>
                    </mxGeometry>
                </mxCell>
                <mxCell id="22" value="&lt;span style=&quot;font-size: 12px;&quot;&gt;swicth (seleccion)&lt;/span&gt;" style="rounded=0;whiteSpace=wrap;html=1;strokeWidth=1;strokeColor=none;fontSize=16;align=center;fillColor=#141417;" vertex="1" parent="1">
                    <mxGeometry x="145" y="520" width="560" height="50" as="geometry"/>
                </mxCell>
                <mxCell id="28" value="&lt;h4&gt;Vehiculo de gasolina por unidad (42$)&lt;/h4&gt;" style="whiteSpace=wrap;html=1;aspect=fixed;strokeWidth=1;align=left;verticalAlign=top;spacingLeft=16;spacingTop=-13;fillColor=#C3FA2D;strokeColor=#FAF8F5;fontColor=#4D4D4D;" vertex="1" parent="1">
                    <mxGeometry x="331" y="650" width="187" height="187" as="geometry"/>
                </mxCell>
                <mxCell id="41" style="edgeStyle=none;html=1;exitX=1;exitY=0;exitDx=0;exitDy=0;entryX=1;entryY=1;entryDx=0;entryDy=0;endArrow=none;endFill=0;" edge="1" parent="1" source="36" target="22">
                    <mxGeometry relative="1" as="geometry"/>
                </mxCell>
                <mxCell id="36" value="&lt;h4&gt;&lt;span style=&quot;font-family: Helvetica; font-size: 12px; font-style: normal; font-variant-ligatures: normal; font-variant-caps: normal; letter-spacing: normal; orphans: 2; text-align: center; text-indent: 0px; text-transform: none; widows: 2; word-spacing: 0px; -webkit-text-stroke-width: 0px; text-decoration-thickness: initial; text-decoration-style: initial; text-decoration-color: initial; float: none; display: inline !important;&quot;&gt;Eligio una opcion que no esta en el menu porfavor intentelo de nuevo&lt;/span&gt;&lt;/h4&gt;" style="whiteSpace=wrap;html=1;aspect=fixed;strokeWidth=1;labelBackgroundColor=none;fillColor=#C3FA2D;strokeColor=#FAF8F5;fontColor=#4D4D4D;" vertex="1" parent="1">
                    <mxGeometry x="518" y="650" width="187" height="187" as="geometry"/>
                </mxCell>
                <mxCell id="42" style="edgeStyle=none;html=1;exitX=0;exitY=0;exitDx=0;exitDy=0;entryX=0;entryY=1;entryDx=0;entryDy=0;endArrow=none;endFill=0;" edge="1" parent="1" source="37" target="22">
                    <mxGeometry relative="1" as="geometry"/>
                </mxCell>
                <mxCell id="43" style="edgeStyle=none;html=1;exitX=1;exitY=0;exitDx=0;exitDy=0;endArrow=none;endFill=0;" edge="1" parent="1" source="37">
                    <mxGeometry relative="1" as="geometry">
                        <mxPoint x="331.78260869565224" y="610" as="targetPoint"/>
                    </mxGeometry>
                </mxCell>
                <mxCell id="37" value="&lt;h4&gt;&lt;span style=&quot;font-family: Helvetica; font-size: 12px; font-style: normal; font-variant-ligatures: normal; font-variant-caps: normal; letter-spacing: normal; orphans: 2; text-indent: 0px; text-transform: none; widows: 2; word-spacing: 0px; -webkit-text-stroke-width: 0px; text-decoration-thickness: initial; text-decoration-style: initial; text-decoration-color: initial; float: none; display: inline !important;&quot;&gt;&lt;font style=&quot;&quot; color=&quot;#4d4d4d&quot;&gt;Vehiculo de diesel por unidad (50$)&lt;/font&gt;&lt;/span&gt;&lt;/h4&gt;" style="whiteSpace=wrap;html=1;aspect=fixed;strokeWidth=1;verticalAlign=top;align=left;spacingLeft=8;spacingTop=-10;fillColor=#C3FA2D;strokeColor=#ffffff;fontColor=#4d4d07;labelBackgroundColor=none;labelBorderColor=none;" vertex="1" parent="1">
                    <mxGeometry x="145" y="650" width="187" height="187" as="geometry"/>
                </mxCell>
                <mxCell id="38" value="caso 1" style="text;html=1;strokeColor=none;fillColor=none;align=center;verticalAlign=middle;whiteSpace=wrap;rounded=0;strokeWidth=1;" vertex="1" parent="1">
                    <mxGeometry x="160" y="620" width="60" height="30" as="geometry"/>
                </mxCell>
                <mxCell id="39" value="caso 2" style="text;html=1;strokeColor=none;fillColor=none;align=center;verticalAlign=middle;whiteSpace=wrap;rounded=0;strokeWidth=1;" vertex="1" parent="1">
                    <mxGeometry x="350" y="620" width="60" height="30" as="geometry"/>
                </mxCell>
                <mxCell id="40" value="default" style="text;html=1;strokeColor=none;fillColor=none;align=center;verticalAlign=middle;whiteSpace=wrap;rounded=0;strokeWidth=1;" vertex="1" parent="1">
                    <mxGeometry x="630" y="620" width="60" height="30" as="geometry"/>
                </mxCell>
                <mxCell id="44" style="edgeStyle=none;html=1;exitX=0;exitY=0;exitDx=0;exitDy=0;entryX=0;entryY=1;entryDx=0;entryDy=0;endArrow=none;endFill=0;" edge="1" parent="1" source="22" target="22">
                    <mxGeometry relative="1" as="geometry"/>
                </mxCell>
                <mxCell id="45" style="edgeStyle=none;html=1;exitX=1;exitY=0;exitDx=0;exitDy=0;entryX=1;entryY=1;entryDx=0;entryDy=0;endArrow=none;endFill=0;" edge="1" parent="1" source="22" target="22">
                    <mxGeometry relative="1" as="geometry"/>
                </mxCell>
                <mxCell id="48" value="&lt;h4&gt;&lt;font color=&quot;#fcf8f8&quot;&gt;&lt;span style=&quot;font-family: Helvetica; font-size: 12px; font-style: normal; font-variant-ligatures: normal; font-variant-caps: normal; letter-spacing: normal; orphans: 2; text-align: center; text-indent: 0px; text-transform: none; widows: 2; word-spacing: 0px; -webkit-text-stroke-width: 0px; text-decoration-thickness: initial; text-decoration-style: initial; text-decoration-color: initial; float: none; display: inline !important;&quot;&gt;Cantidad de vehiculos:&amp;nbsp;&lt;br&gt;&lt;/span&gt;&lt;span style=&quot;font-family: Helvetica; font-size: 12px; font-style: normal; font-variant-ligatures: normal; font-variant-caps: normal; letter-spacing: normal; orphans: 2; text-align: center; text-indent: 0px; text-transform: none; widows: 2; word-spacing: 0px; -webkit-text-stroke-width: 0px; text-decoration-thickness: initial; text-decoration-style: initial; text-decoration-color: initial; float: none; display: inline !important;&quot;&gt;cin &amp;gt;&amp;gt; cantidad&lt;/span&gt;&lt;/font&gt;&lt;/h4&gt;" style="rounded=0;whiteSpace=wrap;html=1;strokeWidth=1;labelBackgroundColor=none;fillColor=#7BBA32;strokeColor=#F0F0F0;" vertex="1" parent="1">
                    <mxGeometry x="145" y="700" width="187" height="46" as="geometry"/>
                </mxCell>
                <mxCell id="52" value="&lt;span style=&quot;color: rgb(240, 240, 240); font-family: Helvetica; font-size: 12px; font-style: normal; font-variant-ligatures: normal; font-variant-caps: normal; font-weight: 400; letter-spacing: normal; orphans: 2; text-align: center; text-indent: 0px; text-transform: none; widows: 2; word-spacing: 0px; -webkit-text-stroke-width: 0px; text-decoration-thickness: initial; text-decoration-style: initial; text-decoration-color: initial; float: none; display: inline !important;&quot;&gt;cantidad = cantidad * vehiculos_D&lt;/span&gt;" style="rounded=0;whiteSpace=wrap;html=1;strokeWidth=1;fillColor=#0B0F0A;labelBackgroundColor=none;" vertex="1" parent="1">
                    <mxGeometry x="145" y="746" width="187" height="46" as="geometry"/>
                </mxCell>
                <mxCell id="53" value="&lt;h4&gt;Cantidad de vehiculos:&amp;nbsp;&lt;br&gt;cin &amp;gt;&amp;gt; cantidad&lt;/h4&gt;" style="rounded=0;whiteSpace=wrap;html=1;strokeWidth=1;fillColor=#7BBA32;fontStyle=0" vertex="1" parent="1">
                    <mxGeometry x="332" y="700" width="187" height="46" as="geometry"/>
                </mxCell>
                <mxCell id="54" value="cantidad = cantidad * vehiculos_g" style="rounded=0;whiteSpace=wrap;html=1;strokeWidth=1;fillColor=#0B0F0A;" vertex="1" parent="1">
                    <mxGeometry x="332" y="746" width="187" height="46" as="geometry"/>
                </mxCell>
                <mxCell id="57" value="&lt;h4&gt;&lt;span style=&quot;font-family: Helvetica; font-size: 12px; font-style: normal; font-variant-ligatures: normal; font-variant-caps: normal; letter-spacing: normal; orphans: 2; text-align: center; text-indent: 0px; text-transform: none; widows: 2; word-spacing: 0px; -webkit-text-stroke-width: 0px; text-decoration-thickness: initial; text-decoration-style: initial; text-decoration-color: initial; float: none; display: inline !important;&quot;&gt;&lt;font style=&quot;&quot; color=&quot;#4d4d4d&quot;&gt;Monto total: cantidad&lt;/font&gt;&lt;/span&gt;&lt;/h4&gt;" style="rounded=0;whiteSpace=wrap;html=1;strokeWidth=1;fillColor=#C3FA2D;labelBackgroundColor=none;" vertex="1" parent="1">
                    <mxGeometry x="145" y="791" width="187" height="46" as="geometry"/>
                </mxCell>
                <mxCell id="58" value="&lt;h4&gt;Monto total: cantidad&lt;/h4&gt;" style="rounded=0;whiteSpace=wrap;html=1;strokeWidth=1;fillColor=#C3FA2D;fontColor=#4D4D4D;" vertex="1" parent="1">
                    <mxGeometry x="332" y="791" width="187" height="46" as="geometry"/>
                </mxCell>
                <mxCell id="62" value="&lt;h1&gt;Fin&lt;/h1&gt;" style="rounded=0;whiteSpace=wrap;html=1;strokeWidth=2;fillColor=#60a917;fontColor=#ffffff;strokeColor=#FFFFFF;" vertex="1" parent="1">
                    <mxGeometry x="145" y="838" width="560" height="50" as="geometry"/>
                </mxCell>
            </root>
        </mxGraphModel>
    </diagram>
</mxfile>